<svg xmlns="http://www.w3.org/2000/svg" viewBox="0 0 1600 900">
  <defs>
    <linearGradient id="bg" x1="0" x2="1" y1="0" y2="1">
      <stop offset="0%" stop-color="#0a4157"/>
      <stop offset="100%" stop-color="#19a7b8"/>
    </linearGradient>
  </defs>
  <rect width="1600" height="900" fill="url(#bg)"/>
  <circle cx="180" cy="120" r="120" fill="rgba(255,255,255,0.08)"/>
  <circle cx="1380" cy="180" r="160" fill="rgba(255,255,255,0.07)"/>
  <circle cx="1280" cy="760" r="180" fill="rgba(255,255,255,0.08)"/>
  <rect x="140" y="170" width="1320" height="560" rx="30" fill="rgba(255,255,255,0.10)"/>
  <rect x="200" y="230" width="320" height="380" rx="18" fill="rgba(255,255,255,0.16)"/>
  <rect x="560" y="230" width="300" height="160" rx="18" fill="rgba(255,255,255,0.16)"/>
  <rect x="900" y="230" width="300" height="160" rx="18" fill="rgba(255,255,255,0.16)"/>
  <rect x="560" y="430" width="640" height="180" rx="18" fill="rgba(255,255,255,0.16)"/>
  <path d="M325 300 h50 v-50 h40 v50 h50 v40 h-50 v50 h-40 v-50 h-50z" fill="#ffffff"/>
  <text x="610" y="305" fill="#ffffff" font-size="42" font-family="Segoe UI, Arial, sans-serif" font-weight="700">HospitalCare</text>
  <text x="610" y="355" fill="#dff7fb" font-size="26" font-family="Segoe UI, Arial, sans-serif">Professional Appointment Management</text>
  <text x="610" y="500" fill="#ffffff" font-size="30" font-family="Segoe UI, Arial, sans-serif">Patient Registration</text>
  <text x="610" y="550" fill="#ffffff" font-size="30" font-family="Segoe UI, Arial, sans-serif">Doctor Scheduling</text>
  <text x="610" y="600" fill="#ffffff" font-size="30" font-family="Segoe UI, Arial, sans-serif">Smart Appointment Tracking</text>
</svg>
